{"accessors":[{"bufferView":2,"componentType":5126,"count":324,"max":[-1.377943992614746,-6.038582801818848,0.4261493682861328],"min":[-1.7389211654663086,-8.0806245803833,-0.047638893127441406],"type":"VEC3","byteOffset":0},{"bufferView":2,"byteOffset":3888,"componentType":5126,"count":324,"max":[0.9996208548545837,1,1],"min":[-0.9996208548545837,-0.5153616666793823,-1],"type":"VEC3"},{"bufferView":3,"componentType":5126,"count":324,"max":[1,0.13115118443965912,0.9999935030937195,1],"min":[-1,-0.07163398712873459,-0.8034162521362305,1],"type":"VEC4","byteOffset":0},{"bufferView":1,"componentType":5126,"count":324,"max":[0.9790594577789307,0.8753912448883057],"min":[0,0],"type":"VEC2","byteOffset":0},{"bufferView":0,"componentType":5125,"count":1146,"max":[323],"min":[0],"type":"SCALAR","byteOffset":0},{"bufferView":2,"byteOffset":7776,"componentType":5126,"count":300,"max":[-0.16105079650878906,-1.4269142150878906,-0.047379493713378906],"min":[-2.893970489501953,-12.510626792907715,-5.0455803871154785],"type":"VEC3"},{"bufferView":2,"byteOffset":11376,"componentType":5126,"count":300,"max":[1,1,1],"min":[-1,-1,-1],"type":"VEC3"},{"bufferView":3,"byteOffset":5184,"componentType":5126,"count":300,"max":[1,1,1,1],"min":[-1,-1,-1,1],"type":"VEC4"},{"bufferView":1,"byteOffset":2592,"componentType":5126,"count":300,"max":[1,1],"min":[0,0],"type":"VEC2"},{"bufferView":0,"byteOffset":4584,"componentType":5125,"count":468,"max":[299],"min":[0],"type":"SCALAR"},{"bufferView":2,"byteOffset":14976,"componentType":5126,"count":324,"max":[-1.377943992614746,-19.31641387939453,0.4261493682861328],"min":[-1.7389211654663086,-21.358455657958984,-0.047638893127441406],"type":"VEC3"},{"bufferView":2,"byteOffset":18864,"componentType":5126,"count":324,"max":[0.9996208548545837,1,1],"min":[-0.9996208548545837,-0.5153664350509644,-1],"type":"VEC3"},{"bufferView":3,"byteOffset":9984,"componentType":5126,"count":324,"max":[1,0.13116341829299927,0.9999935030937195,1],"min":[-1,-0.07166267931461334,-0.8034094572067261,1],"type":"VEC4"},{"bufferView":1,"byteOffset":4992,"componentType":5126,"count":324,"max":[0.9371777176856995,1],"min":[0,0],"type":"VEC2"},{"bufferView":0,"byteOffset":6456,"componentType":5125,"count":1146,"max":[323],"min":[0],"type":"SCALAR"},{"bufferView":2,"byteOffset":22752,"componentType":5126,"count":300,"max":[-0.16105079650878906,-14.825820922851562,-0.0473790168762207],"min":[-2.893970489501953,-25.909534454345703,-5.04557991027832],"type":"VEC3"},{"bufferView":2,"byteOffset":26352,"componentType":5126,"count":300,"max":[1,1,1],"min":[-1,-1,-1],"type":"VEC3"},{"bufferView":3,"byteOffset":15168,"componentType":5126,"count":300,"max":[1,1,1,1],"min":[-1,-1,-1,1],"type":"VEC4"},{"bufferView":1,"byteOffset":7584,"componentType":5126,"count":300,"max":[1,1],"min":[0,0],"type":"VEC2"},{"bufferView":0,"byteOffset":11040,"componentType":5125,"count":468,"max":[299],"min":[0],"type":"SCALAR"},{"bufferView":2,"byteOffset":29952,"componentType":5126,"count":324,"max":[4.546331882476807,-3.2653732299804688,5.501526832580566],"min":[4.1853556632995605,-5.307415008544922,5.02773904800415],"type":"VEC3"},{"bufferView":2,"byteOffset":33840,"componentType":5126,"count":324,"max":[0.999620795249939,1,1],"min":[-0.9996208548545837,-0.5153554677963257,-1],"type":"VEC3"},{"bufferView":3,"byteOffset":19968,"componentType":5126,"count":324,"max":[1,0.13115717470645905,0.9999935030937195,1],"min":[-0.9998717308044434,-0.07164246588945389,-0.8034092783927917,1],"type":"VEC4"},{"bufferView":1,"byteOffset":9984,"componentType":5126,"count":324,"max":[1,0.9997531175613403],"min":[0.04976081848144531,0],"type":"VEC2"},{"bufferView":0,"byteOffset":12912,"componentType":5125,"count":1146,"max":[323],"min":[0],"type":"SCALAR"},{"bufferView":2,"byteOffset":37728,"componentType":5126,"count":552,"max":[15.5,4.7021808313729707e-7,5.5],"min":[0,-7.449999809265137,-0.0141676664352417],"type":"VEC3"},{"bufferView":2,"byteOffset":44352,"componentType":5126,"count":552,"max":[1,1,1],"min":[-1,-1,-1],"type":"VEC3"},{"bufferView":3,"byteOffset":25152,"componentType":5126,"count":552,"max":[1,1,1,1],"min":[-1,-1,-1,1],"type":"VEC4"},{"bufferView":1,"byteOffset":12576,"componentType":5126,"count":552,"max":[1,1],"min":[0,0],"type":"VEC2"},{"bufferView":0,"byteOffset":17496,"componentType":5125,"count":828,"max":[551],"min":[0],"type":"SCALAR"},{"bufferView":2,"byteOffset":50976,"componentType":5126,"count":112,"max":[4.544239044189453,8.6278715133667,5.032002925872803],"min":[1.8329724073410034,-17.67943572998047,4.8212385177612305],"type":"VEC3"},{"bufferView":2,"byteOffset":52320,"componentType":5126,"count":112,"max":[1,1,1],"min":[-1,-1,-1],"type":"VEC3"},{"bufferView":3,"byteOffset":33984,"componentType":5126,"count":112,"max":[1,1,1,1],"min":[-1,-1,-1,1],"type":"VEC4"},{"bufferView":0,"byteOffset":20808,"componentType":5125,"count":174,"max":[111],"min":[0],"type":"SCALAR"},{"bufferView":4,"componentType":5126,"count":44,"max":[0.8333333134651184],"min":[0],"type":"SCALAR","byteOffset":0},{"bufferView":5,"componentType":5126,"count":44,"max":[146.8544464111328,-8.12859058380127,45.81978225708008],"min":[146.8544464111328,-8.12859058380127,32.457603454589844],"type":"VEC3","byteOffset":0},{"bufferView":4,"byteOffset":176,"componentType":5126,"count":101,"max":[1.9583333730697632],"min":[0],"type":"SCALAR"},{"bufferView":5,"byteOffset":528,"componentType":5126,"count":101,"max":[146.8544464111328,-8.12859058380127,54.22808837890625],"min":[146.8544464111328,-8.12859058380127,32.26652908325195],"type":"VEC3"},{"bufferView":4,"byteOffset":580,"componentType":5126,"count":44,"max":[0.8333333134651184],"min":[0],"type":"SCALAR"},{"bufferView":5,"byteOffset":1740,"componentType":5126,"count":44,"max":[146.8544464111328,-8.12859058380127,45.81978225708008],"min":[146.8544464111328,-8.12859058380127,32.457603454589844],"type":"VEC3"},{"bufferView":4,"byteOffset":756,"componentType":5126,"count":101,"max":[1.9583333730697632],"min":[0],"type":"SCALAR"},{"bufferView":5,"byteOffset":2268,"componentType":5126,"count":101,"max":[146.8544464111328,-8.12859058380127,54.22808837890625],"min":[146.8544464111328,-8.12859058380127,32.26652908325195],"type":"VEC3"}],"animations":[{"channels":[{"sampler":0,"target":{"node":5,"path":"translation"}}],"name":"Table Left Door.003|Table Left Door.002Action","samplers":[{"input":34,"interpolation":"LINEAR","output":35}]},{"channels":[{"sampler":0,"target":{"node":5,"path":"translation"}}],"name":"Table Left Door.003|Table Left Door.003Action","samplers":[{"input":36,"interpolation":"LINEAR","output":37}]},{"channels":[{"sampler":0,"target":{"node":8,"path":"translation"}}],"name":"Table Left Door.002|Table Left Door.002Action","samplers":[{"input":38,"interpolation":"LINEAR","output":39}]},{"channels":[{"sampler":0,"target":{"node":8,"path":"translation"}}],"name":"Table Left Door.002|Table Left Door.003Action","samplers":[{"input":40,"interpolation":"LINEAR","output":41}]}],"asset":{"extras":{"author":"Vlasov Konstantin (https://sketchfab.com/vlkg99)","license":"CC-BY-4.0 (http://creativecommons.org/licenses/by/4.0/)","source":"https://sketchfab.com/models/0ca49f58fc0641fb98d11ba87e7e7b03","title":"IKEA Table Hemnes"},"generator":"Sketchfab-3.19.6","version":"2.0"},"bufferViews":[{"buffer":0,"byteLength":21504,"byteOffset":0,"name":"floatBufferViews","target":34963},{"buffer":0,"byteLength":16992,"byteOffset":21504,"byteStride":8,"name":"floatBufferViews","target":34962},{"buffer":0,"byteLength":53664,"byteOffset":38496,"byteStride":12,"name":"floatBufferViews","target":34962},{"buffer":0,"byteLength":35776,"byteOffset":92160,"byteStride":16,"name":"floatBufferViews","target":34962},{"buffer":0,"byteLength":1160,"byteOffset":127936,"name":"floatBufferViews"},{"buffer":0,"byteLength":3480,"byteOffset":129096,"byteStride":12,"name":"floatBufferViews"},{"buffer":0,"byteOffset":132576,"byteLength":459},{"buffer":0,"byteOffset":133036,"byteLength":871},{"buffer":0,"byteOffset":133908,"byteLength":456086},{"buffer":0,"byteOffset":589996,"byteLength":459},{"buffer":0,"byteOffset":590456,"byteLength":473},{"buffer":0,"byteOffset":590932,"byteLength":872},{"buffer":0,"byteOffset":591804,"byteLength":459},{"buffer":0,"byteOffset":592264,"byteLength":468}],"buffers":[{"byteLength":592732,"uri":"data:application/octet-stream;base64,"}],"images":[{"bufferView":6,"mimeType":"image/png"},{"bufferView":7,"mimeType":"image/jpeg"},{"bufferView":8,"mimeType":"image/jpeg"},{"bufferView":9,"mimeType":"image/png"},{"bufferView":10,"mimeType":"image/png"},{"bufferView":11,"mimeType":"image/jpeg"},{"bufferView":12,"mimeType":"image/png"},{"bufferView":13,"mimeType":"image/png"}],"materials":[{"doubleSided":true,"emissiveFactor":[0,0,0],"name":"Lookdoor","pbrMetallicRoughness":{"baseColorFactor":[1,1,1,1],"baseColorTexture":{"index":1,"texCoord":0},"metallicFactor":0,"metallicRoughnessTexture":{"index":0,"texCoord":0},"roughnessFactor":0.6},"alphaMode":"OPAQUE"},{"doubleSided":true,"emissiveFactor":[0,0,0],"name":"Crate","normalTexture":{"index":4,"scale":1,"texCoord":0},"pbrMetallicRoughness":{"baseColorFactor":[1,1,0,1],"baseColorTexture":{"index":2,"texCoord":0},"metallicFactor":0,"metallicRoughnessTexture":{"index":3,"texCoord":0},"roughnessFactor":0.6},"alphaMode":"OPAQUE"},{"doubleSided":true,"emissiveFactor":[0,0,0],"name":"Table_Morilka","normalTexture":{"index":7,"scale":1,"texCoord":0},"pbrMetallicRoughness":{"baseColorFactor":[1,1,0,1],"baseColorTexture":{"index":5,"texCoord":0},"metallicFactor":0,"metallicRoughnessTexture":{"index":6,"texCoord":0},"roughnessFactor":0.6},"alphaMode":"OPAQUE"},{"doubleSided":true,"emissiveFactor":[0,0,0],"name":"Material.003","pbrMetallicRoughness":{"baseColorFactor":[1,1,0,1],"metallicFactor":0,"roughnessFactor":0.6},"alphaMode":"OPAQUE"}],"meshes":[{"name":"Table Left Door.003_Lookdoor_0","primitives":[{"attributes":{"NORMAL":1,"POSITION":0,"TANGENT":2,"TEXCOORD_0":3},"indices":4,"material":0,"mode":4}]},{"name":"Table Left Door.003_Crate _0","primitives":[{"attributes":{"NORMAL":6,"POSITION":5,"TANGENT":7,"TEXCOORD_0":8},"indices":9,"material":1,"mode":4}]},{"name":"Table Left Door.002_Lookdoor_0","primitives":[{"attributes":{"NORMAL":11,"POSITION":10,"TANGENT":12,"TEXCOORD_0":13},"indices":14,"material":0,"mode":4}]},{"name":"Table Left Door.002_Crate _0","primitives":[{"attributes":{"NORMAL":16,"POSITION":15,"TANGENT":17,"TEXCOORD_0":18},"indices":19,"material":1,"mode":4}]},{"name":"Table Left Door.001_Lookdoor_0","primitives":[{"attributes":{"NORMAL":21,"POSITION":20,"TANGENT":22,"TEXCOORD_0":23},"indices":24,"material":0,"mode":4}]},{"name":"Table _Table Morilka_0","primitives":[{"attributes":{"NORMAL":26,"POSITION":25,"TANGENT":27,"TEXCOORD_0":28},"indices":29,"material":2,"mode":4}]},{"name":"Table Left Door_Material.003_0","primitives":[{"attributes":{"NORMAL":31,"POSITION":30,"TANGENT":32},"indices":33,"material":3,"mode":4}]}],"nodes":[{"children":[1],"name":"RootNode (gltf orientation matrix)","rotation":[-0.7071067811865475,0,0,0.7071067811865476],"translation":[0,0,0],"scale":[1,1,1]},{"children":[2],"matrix":[0,-1,0,0,1,0,0,0,0,0,1,0,85.42588806152344,69.57417297363281,4.179999990583383e-8,1],"name":"RootNode (model correction matrix)"},{"children":[3],"matrix":[1,0,0,0,0,0,1,0,0,-1,0,0,0,0,0,1],"name":"152d53b448114410b69a47ba7a5a8091.fbx"},{"children":[4],"name":""},{"children":[5,8,11,13,15],"name":"RootNode"},{"children":[6,7],"name":"Table Left Door.003","rotation":[2.1855695919725804e-8,0,0,1],"scale":[11.236334800720215,1.9840766191482544,10],"translation":[146.8544464111328,-8.12859058380127,32.54619598388672]},{"mesh":0,"name":"Table Left Door.003_Lookdoor_0"},{"mesh":1,"name":"Table Left Door.003_Crate _0"},{"children":[9,10],"name":"Table Left Door.002","rotation":[2.1855695919725804e-8,0,0,1],"scale":[11.236334800720215,1.9840766191482544,10],"translation":[146.8544464111328,-8.12859058380127,32.457603454589844]},{"mesh":2,"name":"Table Left Door.002_Lookdoor_0"},{"mesh":3,"name":"Table Left Door.002_Crate _0"},{"children":[12],"name":"Table Left Door.001","rotation":[2.1855695919725804e-8,0,0,1],"scale":[11.236334800720215,1.9840766191482544,10],"translation":[-10.623998641967773,-24.80640411376953,-19.903003692626953]},{"mesh":4,"name":"Table Left Door.001_Lookdoor_0"},{"children":[14],"name":"Table ","rotation":[2.1855695919725804e-8,0,0,1],"scale":[10,10,10],"translation":[0,0,-20.814254760742188]},{"mesh":5,"name":"Table _Table Morilka_0"},{"children":[16],"name":"Table Left Door","rotation":[2.1855695919725804e-8,0,0,1],"scale":[11.236334800720215,1.9840766191482544,10],"translation":[-10.623998641967773,-24.80640411376953,-19.903003692626953]},{"mesh":6,"name":"Table Left Door_Material.003_0"}],"samplers":[{"magFilter":9729,"minFilter":9987,"wrapS":10497,"wrapT":10497}],"scene":0,"scenes":[{"name":"OSG_Scene","nodes":[0]}],"textures":[{"sampler":0,"source":0},{"sampler":0,"source":1},{"sampler":0,"source":2},{"sampler":0,"source":3},{"sampler":0,"source":4},{"sampler":0,"source":5},{"sampler":0,"source":6},{"sampler":0,"source":7}]}
